<svg width="25" height="24" viewBox="0 0 25 24" fill="none" xmlns="http://www.w3.org/2000/svg">
<path d="M16.1027 12.1872C16.1027 14.1346 14.529 15.7083 12.5816 15.7083C10.6342 15.7083 9.06055 14.1346 9.06055 12.1872C9.06055 10.2398 10.6342 8.66614 12.5816 8.66614C14.529 8.66614 16.1027 10.2398 16.1027 12.1872Z" stroke="#292D32" stroke-width="1.47531" stroke-linecap="round" stroke-linejoin="round"/>
<path d="M12.5819 20.3211C16.0538 20.3211 19.2896 18.2754 21.5419 14.7346C22.4271 13.3478 22.4271 11.0169 21.5419 9.63007C19.2896 6.08934 16.0538 4.04358 12.5819 4.04358C9.11003 4.04358 5.8742 6.08934 3.6219 9.63007C2.73671 11.0169 2.73671 13.3478 3.6219 14.7346C5.8742 18.2754 9.11003 20.3211 12.5819 20.3211Z" stroke="#292D32" stroke-width="1.47531" stroke-linecap="round" stroke-linejoin="round"/>
</svg>
