<svg width="18" height="18" viewBox="0 0 18 18" fill="current" xmlns="http://www.w3.org/2000/svg">
    <path d="M1.46582 2.0155H2.71369C3.48822 2.0155 4.09781 2.68246 4.03326 3.44983L3.43802 10.5928C3.33762 11.7617 4.26275 12.7658 5.4389 12.7658H13.0767C14.1094 12.7658 15.013 11.9195 15.0919 10.894L15.4792 5.51526C15.5652 4.32477 14.6616 3.35659 13.4639 3.35659H4.20539" stroke="#f6861f" stroke-width="1.47531" stroke-miterlimit="10" stroke-linecap="round" stroke-linejoin="round"/>
    <path d="M11.6855 16.3588C12.1806 16.3588 12.582 15.9575 12.582 15.4624C12.582 14.9673 12.1806 14.5659 11.6855 14.5659C11.1904 14.5659 10.7891 14.9673 10.7891 15.4624C10.7891 15.9575 11.1904 16.3588 11.6855 16.3588Z" stroke="#f6861f" stroke-width="1.47531" stroke-miterlimit="10" stroke-linecap="round" stroke-linejoin="round"/>
    <path d="M5.94821 16.3588C6.44331 16.3588 6.84466 15.9575 6.84466 15.4624C6.84466 14.9673 6.44331 14.5659 5.94821 14.5659C5.45311 14.5659 5.05176 14.9673 5.05176 15.4624C5.05176 15.9575 5.45311 16.3588 5.94821 16.3588Z" stroke="#f6861f" stroke-width="1.47531" stroke-miterlimit="10" stroke-linecap="round" stroke-linejoin="round"/>
    <path d="M6.48633 6.31848H15.0923" stroke="current" stroke-width="1.47531" stroke-miterlimit="10" stroke-linecap="round" stroke-linejoin="round"/>
    </svg>
    