<svg width="24" height="25" viewBox="0 0 24 25" fill="none" xmlns="http://www.w3.org/2000/svg">
<path d="M2 3.17163H3.74001C4.82001 3.17163 5.67 4.07241 5.58 5.1088L4.75 14.7559C4.61 16.3347 5.89999 17.6907 7.53999 17.6907H18.19C19.63 17.6907 20.89 16.5478 21 15.1627L21.54 7.89833C21.66 6.29048 20.4 4.98288 18.73 4.98288H5.82001" stroke="#3A3A3A" stroke-width="1.5" stroke-miterlimit="10" stroke-linecap="round" stroke-linejoin="round"/>
<path d="M16.25 22.5433C16.9404 22.5433 17.5 22.0012 17.5 21.3326C17.5 20.6639 16.9404 20.1218 16.25 20.1218C15.5596 20.1218 15 20.6639 15 21.3326C15 22.0012 15.5596 22.5433 16.25 22.5433Z" stroke="#3A3A3A" stroke-width="1.5" stroke-miterlimit="10" stroke-linecap="round" stroke-linejoin="round"/>
<path d="M8.25 22.5433C8.94036 22.5433 9.5 22.0012 9.5 21.3326C9.5 20.6639 8.94036 20.1218 8.25 20.1218C7.55964 20.1218 7 20.6639 7 21.3326C7 22.0012 7.55964 22.5433 8.25 22.5433Z" stroke="#3A3A3A" stroke-width="1.5" stroke-miterlimit="10" stroke-linecap="round" stroke-linejoin="round"/>
<path d="M9 8.98315H21" stroke="#3A3A3A" stroke-width="1.5" stroke-miterlimit="10" stroke-linecap="round" stroke-linejoin="round"/>
</svg>
