<svg width="54" height="23" viewBox="0 0 54 23" fill="none" xmlns="http://www.w3.org/2000/svg">
<path d="M3.92 8.09C3.22667 8.09 2.63333 7.94333 2.14 7.65C1.64667 7.35667 1.26667 6.94 1 6.4C0.74 5.86 0.61 5.21667 0.61 4.47C0.61 3.91 0.683333 3.41 0.83 2.97C0.983333 2.52333 1.2 2.14667 1.48 1.84C1.76667 1.52667 2.11667 1.28667 2.53 1.12C2.94333 0.946666 3.40667 0.86 3.92 0.86C4.33333 0.86 4.72667 0.92 5.1 1.04C5.47333 1.15333 5.79667 1.32333 6.07 1.55C6.15667 1.61667 6.21333 1.69333 6.24 1.78C6.27333 1.86 6.27667 1.94 6.25 2.02C6.23 2.09333 6.19 2.15667 6.13 2.21C6.07667 2.25667 6.01 2.28 5.93 2.28C5.85 2.28 5.76 2.24667 5.66 2.18C5.42 1.98667 5.15667 1.84333 4.87 1.75C4.58333 1.65667 4.27333 1.61 3.94 1.61C3.41333 1.61 2.96667 1.72333 2.6 1.95C2.23333 2.17 1.95667 2.49333 1.77 2.92C1.58333 3.34667 1.49 3.86333 1.49 4.47C1.49 5.07667 1.58333 5.59667 1.77 6.03C1.95667 6.45667 2.23333 6.78333 2.6 7.01C2.96667 7.23 3.41333 7.34 3.94 7.34C4.26667 7.34 4.57667 7.29333 4.87 7.2C5.16333 7.1 5.43333 6.95333 5.68 6.76C5.78 6.69333 5.87 6.66333 5.95 6.67C6.03 6.67 6.09667 6.69333 6.15 6.74C6.20333 6.78667 6.24 6.84667 6.26 6.92C6.28667 6.99333 6.28667 7.07 6.26 7.15C6.24 7.23 6.19 7.3 6.11 7.36C5.83 7.6 5.5 7.78333 5.12 7.91C4.74667 8.03 4.34667 8.09 3.92 8.09ZM8.27273 8.07C8.16607 8.07 8.0794 8.04667 8.01273 8C7.95273 7.94667 7.91607 7.88 7.90273 7.8C7.89607 7.71333 7.91607 7.61667 7.96273 7.51L10.7127 1.25C10.7727 1.11667 10.8427 1.02333 10.9227 0.97C11.0094 0.91 11.1027 0.88 11.2027 0.88C11.3027 0.88 11.3927 0.91 11.4727 0.97C11.5594 1.02333 11.6294 1.11667 11.6827 1.25L14.4427 7.51C14.4961 7.61667 14.5161 7.71333 14.5027 7.8C14.4961 7.88667 14.4627 7.95333 14.4027 8C14.3427 8.04667 14.2594 8.07 14.1527 8.07C14.0327 8.07 13.9361 8.04 13.8627 7.98C13.7894 7.91333 13.7294 7.82 13.6827 7.7L12.9427 5.99L13.3427 6.2H9.04273L9.45273 5.99L8.72273 7.7C8.66273 7.82667 8.5994 7.92 8.53273 7.98C8.46607 8.04 8.3794 8.07 8.27273 8.07ZM11.1927 1.91L9.58273 5.7L9.34273 5.51H13.0427L12.8227 5.7L11.2127 1.91H11.1927ZM18.9293 8.09C18.616 8.09 18.3093 8.06333 18.0093 8.01C17.7093 7.95667 17.4293 7.88 17.1693 7.78C16.916 7.68 16.686 7.55333 16.4793 7.4C16.3993 7.34 16.3426 7.27333 16.3093 7.2C16.2826 7.12 16.276 7.04333 16.2893 6.97C16.3093 6.89 16.3426 6.82333 16.3893 6.77C16.4426 6.71667 16.506 6.68667 16.5793 6.68C16.6526 6.67333 16.7326 6.69667 16.8193 6.75C17.1193 6.96333 17.4393 7.12 17.7793 7.22C18.1193 7.31333 18.5026 7.36 18.9293 7.36C19.5293 7.36 19.9726 7.25 20.2593 7.03C20.5526 6.80333 20.6993 6.50667 20.6993 6.14C20.6993 5.84 20.5926 5.60667 20.3793 5.44C20.1726 5.26667 19.8226 5.13 19.3293 5.03L18.2893 4.82C17.6626 4.68667 17.1926 4.47 16.8793 4.17C16.5726 3.86333 16.4193 3.45667 16.4193 2.95C16.4193 2.63667 16.4826 2.35333 16.6093 2.1C16.736 1.84 16.9126 1.62 17.1393 1.44C17.366 1.25333 17.636 1.11 17.9493 1.01C18.2626 0.909999 18.6093 0.86 18.9893 0.86C19.4093 0.86 19.7993 0.92 20.1593 1.04C20.526 1.15333 20.856 1.32667 21.1493 1.56C21.2226 1.62 21.2726 1.69 21.2993 1.77C21.326 1.84333 21.3293 1.91667 21.3093 1.99C21.2893 2.05667 21.2526 2.11333 21.1993 2.16C21.1526 2.20667 21.0893 2.23333 21.0093 2.24C20.936 2.24667 20.8526 2.22 20.7593 2.16C20.4926 1.96 20.216 1.81667 19.9293 1.73C19.6426 1.63667 19.326 1.59 18.9793 1.59C18.626 1.59 18.3193 1.64333 18.0593 1.75C17.806 1.85667 17.606 2.01333 17.4593 2.22C17.3193 2.42 17.2493 2.65333 17.2493 2.92C17.2493 3.24 17.346 3.49333 17.5393 3.68C17.7393 3.86667 18.0626 4.00333 18.5093 4.09L19.5493 4.31C20.2226 4.45 20.7193 4.66333 21.0393 4.95C21.366 5.23 21.5293 5.61333 21.5293 6.1C21.5293 6.39333 21.4693 6.66333 21.3493 6.91C21.2293 7.15667 21.056 7.37 20.8293 7.55C20.6026 7.72333 20.3293 7.85667 20.0093 7.95C19.6893 8.04333 19.3293 8.09 18.9293 8.09ZM24.2116 8.07C24.0783 8.07 23.975 8.03333 23.9016 7.96C23.835 7.88 23.8016 7.77333 23.8016 7.64V1.31C23.8016 1.17 23.835 1.06333 23.9016 0.99C23.975 0.916666 24.0783 0.88 24.2116 0.88C24.345 0.88 24.445 0.916666 24.5116 0.99C24.585 1.06333 24.6216 1.17 24.6216 1.31V4.07H28.8516V1.31C28.8516 1.17 28.885 1.06333 28.9516 0.99C29.025 0.916666 29.1283 0.88 29.2616 0.88C29.395 0.88 29.495 0.916666 29.5616 0.99C29.635 1.06333 29.6716 1.17 29.6716 1.31V7.64C29.6716 7.77333 29.635 7.88 29.5616 7.96C29.495 8.03333 29.395 8.07 29.2616 8.07C29.1283 8.07 29.025 8.03333 28.9516 7.96C28.885 7.88 28.8516 7.77333 28.8516 7.64V4.78H24.6216V7.64C24.6216 7.77333 24.5883 7.88 24.5216 7.96C24.455 8.03333 24.3516 8.07 24.2116 8.07ZM38.9472 8.09C38.2939 8.09 37.7239 7.94333 37.2372 7.65C36.7572 7.35 36.3839 6.93 36.1172 6.39C35.8572 5.85 35.7272 5.21 35.7272 4.47C35.7272 3.91 35.8005 3.41 35.9472 2.97C36.1005 2.52333 36.3172 2.14667 36.5972 1.84C36.8772 1.52667 37.2139 1.28667 37.6072 1.12C38.0072 0.946666 38.4539 0.86 38.9472 0.86C39.6139 0.86 40.1872 1.00667 40.6672 1.3C41.1539 1.59333 41.5272 2.01 41.7872 2.55C42.0539 3.08333 42.1872 3.72 42.1872 4.46C42.1872 5.02 42.1105 5.52333 41.9572 5.97C41.8039 6.41667 41.5872 6.79667 41.3072 7.11C41.0272 7.42333 40.6872 7.66667 40.2872 7.84C39.8939 8.00667 39.4472 8.09 38.9472 8.09ZM38.9472 7.36C39.4539 7.36 39.8805 7.24667 40.2272 7.02C40.5805 6.79333 40.8505 6.46333 41.0372 6.03C41.2239 5.59667 41.3172 5.07667 41.3172 4.47C41.3172 3.55667 41.1105 2.85 40.6972 2.35C40.2905 1.84333 39.7072 1.59 38.9472 1.59C38.4539 1.59 38.0305 1.70333 37.6772 1.93C37.3305 2.15667 37.0639 2.48667 36.8772 2.92C36.6905 3.34667 36.5972 3.86333 36.5972 4.47C36.5972 5.37667 36.8039 6.08667 37.2172 6.6C37.6305 7.10667 38.2072 7.36 38.9472 7.36ZM45.0432 8.07C44.9165 8.07 44.8199 8.03667 44.7532 7.97C44.6865 7.89667 44.6532 7.79333 44.6532 7.66V1.3C44.6532 1.16667 44.6865 1.06333 44.7532 0.99C44.8199 0.916666 44.9065 0.88 45.0132 0.88C45.1199 0.88 45.1965 0.9 45.2432 0.94C45.2965 0.973333 45.3565 1.03667 45.4232 1.13L49.7832 6.94H49.5432V1.28C49.5432 1.15333 49.5765 1.05667 49.6432 0.99C49.7099 0.916666 49.8065 0.88 49.9332 0.88C50.0532 0.88 50.1432 0.916666 50.2032 0.99C50.2699 1.05667 50.3032 1.15333 50.3032 1.28V7.67C50.3032 7.79667 50.2732 7.89667 50.2132 7.97C50.1599 8.03667 50.0799 8.07 49.9732 8.07C49.8732 8.07 49.7932 8.05 49.7332 8.01C49.6732 7.97 49.6099 7.90667 49.5432 7.82L45.1932 2.01H45.4232V7.66C45.4232 7.79333 45.3899 7.89667 45.3232 7.97C45.2565 8.03667 45.1632 8.07 45.0432 8.07ZM1.32 22C1.17333 22 1.06 21.9633 0.98 21.89C0.906667 21.81 0.87 21.6967 0.87 21.55V15.4C0.87 15.2533 0.906667 15.1433 0.98 15.07C1.06 14.99 1.17333 14.95 1.32 14.95H3.25C4.39 14.95 5.27 15.25 5.89 15.85C6.51 16.45 6.82 17.3233 6.82 18.47C6.82 19.0433 6.74 19.55 6.58 19.99C6.42667 20.4233 6.19667 20.79 5.89 21.09C5.58333 21.39 5.21 21.6167 4.77 21.77C4.33 21.9233 3.82333 22 3.25 22H1.32ZM1.69 21.3H3.19C3.65667 21.3 4.06 21.24 4.4 21.12C4.74667 21 5.03333 20.8233 5.26 20.59C5.49333 20.3567 5.66667 20.0633 5.78 19.71C5.89333 19.35 5.95 18.9367 5.95 18.47C5.95 17.53 5.72 16.8267 5.26 16.36C4.8 15.8867 4.11 15.65 3.19 15.65H1.69V21.3ZM9.74187 22C9.59521 22 9.48188 21.9633 9.40188 21.89C9.32854 21.81 9.29188 21.6967 9.29188 21.55V15.4C9.29188 15.2533 9.32854 15.1433 9.40188 15.07C9.48188 14.99 9.59521 14.95 9.74187 14.95H13.4619C13.5752 14.95 13.6619 14.98 13.7219 15.04C13.7819 15.1 13.8119 15.1833 13.8119 15.29C13.8119 15.4033 13.7819 15.49 13.7219 15.55C13.6619 15.61 13.5752 15.64 13.4619 15.64H10.0919V18.08H13.2519C13.3652 18.08 13.4519 18.11 13.5119 18.17C13.5719 18.2233 13.6019 18.3067 13.6019 18.42C13.6019 18.5333 13.5719 18.62 13.5119 18.68C13.4519 18.74 13.3652 18.77 13.2519 18.77H10.0919V21.31H13.4619C13.5752 21.31 13.6619 21.34 13.7219 21.4C13.7819 21.46 13.8119 21.5433 13.8119 21.65C13.8119 21.7633 13.7819 21.85 13.7219 21.91C13.6619 21.97 13.5752 22 13.4619 22H9.74187ZM16.542 22C16.4086 22 16.3053 21.9633 16.232 21.89C16.1586 21.81 16.122 21.7033 16.122 21.57V15.33C16.122 15.19 16.1553 15.0833 16.222 15.01C16.2953 14.9367 16.3986 14.9 16.532 14.9C16.6653 14.9 16.7653 14.9367 16.832 15.01C16.9053 15.0833 16.942 15.19 16.942 15.33V21.28H20.222C20.342 21.28 20.4353 21.3133 20.502 21.38C20.5686 21.44 20.602 21.5267 20.602 21.64C20.602 21.7533 20.5686 21.8433 20.502 21.91C20.4353 21.97 20.342 22 20.222 22H16.542ZM22.9616 22.07C22.8283 22.07 22.725 22.0333 22.6516 21.96C22.585 21.88 22.5516 21.7733 22.5516 21.64V15.31C22.5516 15.17 22.585 15.0633 22.6516 14.99C22.725 14.9167 22.8283 14.88 22.9616 14.88C23.095 14.88 23.195 14.9167 23.2616 14.99C23.335 15.0633 23.3716 15.17 23.3716 15.31V21.64C23.3716 21.7733 23.3383 21.88 23.2716 21.96C23.205 22.0333 23.1016 22.07 22.9616 22.07ZM28.7 22.07C28.5733 22.07 28.47 22.04 28.39 21.98C28.31 21.92 28.2467 21.83 28.2 21.71L25.45 15.42C25.4033 15.3067 25.39 15.2133 25.41 15.14C25.43 15.06 25.4733 14.9967 25.54 14.95C25.6133 14.9033 25.6967 14.88 25.79 14.88C25.9167 14.88 26.01 14.91 26.07 14.97C26.1367 15.0233 26.19 15.1033 26.23 15.21L28.87 21.34H28.55L31.18 15.2C31.2267 15.1 31.2833 15.0233 31.35 14.97C31.4167 14.91 31.51 14.88 31.63 14.88C31.7233 14.88 31.8 14.9033 31.86 14.95C31.9267 14.9967 31.9667 15.06 31.98 15.14C32 15.22 31.9867 15.3133 31.94 15.42L29.19 21.71C29.1433 21.83 29.08 21.92 29 21.98C28.9267 22.04 28.8267 22.07 28.7 22.07ZM34.4645 22C34.3179 22 34.2045 21.9633 34.1245 21.89C34.0512 21.81 34.0145 21.6967 34.0145 21.55V15.4C34.0145 15.2533 34.0512 15.1433 34.1245 15.07C34.2045 14.99 34.3179 14.95 34.4645 14.95H38.1845C38.2979 14.95 38.3845 14.98 38.4445 15.04C38.5045 15.1 38.5345 15.1833 38.5345 15.29C38.5345 15.4033 38.5045 15.49 38.4445 15.55C38.3845 15.61 38.2979 15.64 38.1845 15.64H34.8145V18.08H37.9745C38.0879 18.08 38.1745 18.11 38.2345 18.17C38.2945 18.2233 38.3245 18.3067 38.3245 18.42C38.3245 18.5333 38.2945 18.62 38.2345 18.68C38.1745 18.74 38.0879 18.77 37.9745 18.77H34.8145V21.31H38.1845C38.2979 21.31 38.3845 21.34 38.4445 21.4C38.5045 21.46 38.5345 21.5433 38.5345 21.65C38.5345 21.7633 38.5045 21.85 38.4445 21.91C38.3845 21.97 38.2979 22 38.1845 22H34.4645ZM41.2546 22.07C41.1213 22.07 41.0179 22.0333 40.9446 21.96C40.8779 21.88 40.8446 21.7733 40.8446 21.64V15.37C40.8446 15.23 40.8813 15.1267 40.9546 15.06C41.0279 14.9867 41.1313 14.95 41.2646 14.95H43.6346C44.3879 14.95 44.9679 15.1267 45.3746 15.48C45.7813 15.8333 45.9846 16.3367 45.9846 16.99C45.9846 17.4033 45.8913 17.7633 45.7046 18.07C45.5246 18.37 45.2579 18.6 44.9046 18.76C44.5513 18.9133 44.1279 18.99 43.6346 18.99L43.7346 18.86H43.9346C44.1946 18.86 44.4213 18.9267 44.6146 19.06C44.8079 19.1933 44.9846 19.4067 45.1446 19.7L46.1046 21.49C46.1579 21.5833 46.1813 21.6767 46.1746 21.77C46.1746 21.8567 46.1446 21.93 46.0846 21.99C46.0246 22.0433 45.9379 22.07 45.8246 22.07C45.7113 22.07 45.6179 22.0433 45.5446 21.99C45.4713 21.9367 45.4079 21.86 45.3546 21.76L44.2646 19.74C44.1113 19.4533 43.9346 19.2633 43.7346 19.17C43.5346 19.07 43.2713 19.02 42.9446 19.02H41.6646V21.64C41.6646 21.7733 41.6313 21.88 41.5646 21.96C41.4979 22.0333 41.3946 22.07 41.2546 22.07ZM41.6646 18.37H43.5146C44.0613 18.37 44.4746 18.2567 44.7546 18.03C45.0346 17.7967 45.1746 17.45 45.1746 16.99C45.1746 16.5433 45.0346 16.2067 44.7546 15.98C44.4746 15.7467 44.0613 15.63 43.5146 15.63H41.6646V18.37ZM50.5855 22.07C50.4521 22.07 50.3488 22.0333 50.2755 21.96C50.2088 21.88 50.1755 21.77 50.1755 21.63V18.35L50.3555 18.92L47.8455 15.46C47.7855 15.3733 47.7555 15.2867 47.7555 15.2C47.7621 15.1067 47.7988 15.03 47.8655 14.97C47.9321 14.91 48.0188 14.88 48.1255 14.88C48.2188 14.88 48.3021 14.9033 48.3755 14.95C48.4488 14.99 48.5155 15.0567 48.5755 15.15L50.7055 18.09H50.4955L52.6255 15.15C52.6988 15.05 52.7688 14.98 52.8355 14.94C52.9021 14.9 52.9821 14.88 53.0755 14.88C53.1821 14.88 53.2655 14.91 53.3255 14.97C53.3855 15.0233 53.4155 15.0967 53.4155 15.19C53.4221 15.2767 53.3921 15.37 53.3255 15.47L50.8255 18.92L50.9955 18.35V21.63C50.9955 21.9233 50.8588 22.07 50.5855 22.07Z" fill="black"/>
</svg>
